<svg version="1.1" id="Layer_1" xmlns="http://www.w3.org/2000/svg" xmlns:xlink="http://www.w3.org/1999/xlink" x="0px" y="0px"
	 width="100%" viewBox="0 0 437 426" enable-background="new 0 0 437 426" xml:space="preserve">
<path fill="#212A3B" opacity="1.000000" stroke="none" 
	d="
M0.999999,298.000000 
	C1.000000,242.312439 1.000000,186.624878 1.370363,130.310532 
	C1.822908,129.361954 1.939562,129.044693 1.982400,128.717743 
	C10.098952,66.770699 53.431370,18.804003 114.267479,4.493050 
	C119.812057,3.188753 125.420967,2.157856 131.000000,1.000000 
	C188.687561,1.000000 246.375122,1.000000 304.702454,1.377746 
	C307.161835,1.932093 308.993591,2.027530 310.799377,2.296987 
	C383.887909,13.203131 435.917114,73.650185 435.925110,147.655014 
	C435.929871,191.800125 436.035980,235.945755 435.831268,280.089935 
	C435.791290,288.712128 435.149384,297.431793 433.733978,305.931488 
	C422.274658,374.747711 361.513153,426.066101 291.818024,426.068878 
	C242.841934,426.070831 193.865799,426.095795 144.889786,426.030090 
	C139.741806,426.023193 134.567703,425.711853 129.451035,425.137848 
	C68.722244,418.325226 18.972794,374.130493 4.927764,314.614502 
	C3.620705,309.075836 2.309360,303.538147 0.999999,298.000000 
M113.753281,187.253937 
	C138.833450,162.173767 163.941299,137.121124 188.946121,111.966057 
	C191.169052,109.729767 193.014862,108.974579 196.269989,109.779022 
	C209.009445,112.927330 221.836151,115.736458 234.684387,118.412666 
	C236.251724,118.739128 239.301559,117.949348 239.706604,116.912262 
	C243.176666,108.027290 246.195328,98.966026 249.384796,89.854950 
	C247.741180,89.172989 247.169373,88.841629 246.553513,88.693901 
	C227.982620,84.239120 209.442337,79.646378 190.808365,75.472092 
	C186.120773,74.421997 181.839966,76.205284 178.218430,79.853653 
	C147.595352,110.703682 116.849030,141.431320 86.181908,172.237701 
	C80.310516,178.135742 74.460579,184.071030 68.900902,190.258820 
	C63.704773,196.041962 64.545883,205.091263 70.367973,210.452377 
	C75.388626,215.075516 85.974350,215.031464 90.641090,210.365799 
	C98.179405,202.829163 105.716209,195.291031 113.753281,187.253937 
M259.675262,340.175507 
	C290.292053,309.559143 320.868774,278.902466 351.579498,248.380600 
	C355.164398,244.817749 356.472260,240.873276 355.391693,236.247055 
	C351.841217,221.046249 348.108429,205.887650 344.372314,190.730911 
	C343.640961,187.764038 342.581024,184.878159 341.464874,181.286377 
	C332.370483,184.511002 323.955750,187.526108 315.516266,190.470367 
	C312.478455,191.530136 311.568359,193.228516 312.429138,196.515594 
	C315.080048,206.638275 317.010498,216.964966 320.013184,226.974731 
	C321.993622,233.576843 320.356628,237.934402 315.539825,242.644806 
	C283.997253,273.490753 252.847748,304.739349 221.217468,335.493988 
	C216.357407,340.219513 214.715042,344.661438 215.609695,351.128326 
	C216.416000,356.956726 219.143188,360.904175 224.434158,362.650970 
	C229.977966,364.481232 235.522156,364.460144 240.118011,359.770111 
	C246.411591,353.347595 252.817535,347.035187 259.675262,340.175507 
M243.930801,203.736053 
	C243.648285,192.762115 239.231033,188.095612 228.165298,187.778992 
	C200.357758,186.983429 172.545517,186.348892 144.733337,185.732101 
	C143.382248,185.702133 141.580948,186.033218 140.719757,186.912018 
	C131.211472,196.614655 121.847946,206.459167 111.762985,216.976791 
	C145.656815,217.773163 178.638062,218.548096 212.493820,219.343582 
	C212.493820,253.646606 212.493820,287.027527 212.493820,321.160736 
	C223.492004,310.334808 233.700134,300.385498 243.726761,290.256500 
	C244.678284,289.295258 244.802399,287.205627 244.788712,285.644409 
	C244.552002,258.656433 244.233353,231.669159 243.930801,203.736053 
z"/>
<path fill="#FDFDFD" opacity="1.000000" stroke="none" 
	d="
M113.503464,187.503754 
	C105.716209,195.291031 98.179405,202.829163 90.641090,210.365799 
	C85.974350,215.031464 75.388626,215.075516 70.367973,210.452377 
	C64.545883,205.091263 63.704773,196.041962 68.900902,190.258820 
	C74.460579,184.071030 80.310516,178.135742 86.181908,172.237701 
	C116.849030,141.431320 147.595352,110.703682 178.218430,79.853653 
	C181.839966,76.205284 186.120773,74.421997 190.808365,75.472092 
	C209.442337,79.646378 227.982620,84.239120 246.553513,88.693901 
	C247.169373,88.841629 247.741180,89.172989 249.384796,89.854950 
	C246.195328,98.966026 243.176666,108.027290 239.706604,116.912262 
	C239.301559,117.949348 236.251724,118.739128 234.684387,118.412666 
	C221.836151,115.736458 209.009445,112.927330 196.269989,109.779022 
	C193.014862,108.974579 191.169052,109.729767 188.946121,111.966057 
	C163.941299,137.121124 138.833450,162.173767 113.503464,187.503754 
z"/>
<path fill="#FEFEFE" opacity="1.000000" stroke="none" 
	d="
M259.425293,340.425537 
	C252.817535,347.035187 246.411591,353.347595 240.118011,359.770111 
	C235.522156,364.460144 229.977966,364.481232 224.434158,362.650970 
	C219.143188,360.904175 216.416000,356.956726 215.609695,351.128326 
	C214.715042,344.661438 216.357407,340.219513 221.217468,335.493988 
	C252.847748,304.739349 283.997253,273.490753 315.539825,242.644806 
	C320.356628,237.934402 321.993622,233.576843 320.013184,226.974731 
	C317.010498,216.964966 315.080048,206.638275 312.429138,196.515594 
	C311.568359,193.228516 312.478455,191.530136 315.516266,190.470367 
	C323.955750,187.526108 332.370483,184.511002 341.464874,181.286377 
	C342.581024,184.878159 343.640961,187.764038 344.372314,190.730911 
	C348.108429,205.887650 351.841217,221.046249 355.391693,236.247055 
	C356.472260,240.873276 355.164398,244.817749 351.579498,248.380600 
	C320.868774,278.902466 290.292053,309.559143 259.425293,340.425537 
z"/>
<path fill="#FDFDFD" opacity="1.000000" stroke="none" 
	d="
M243.931702,204.208893 
	C244.233353,231.669159 244.552002,258.656433 244.788712,285.644409 
	C244.802399,287.205627 244.678284,289.295258 243.726761,290.256500 
	C233.700134,300.385498 223.492004,310.334808 212.493820,321.160736 
	C212.493820,287.027527 212.493820,253.646606 212.493820,219.343582 
	C178.638062,218.548096 145.656815,217.773163 111.762985,216.976791 
	C121.847946,206.459167 131.211472,196.614655 140.719757,186.912018 
	C141.580948,186.033218 143.382248,185.702133 144.733337,185.732101 
	C172.545517,186.348892 200.357758,186.983429 228.165298,187.778992 
	C239.231033,188.095612 243.648285,192.762115 243.931702,204.208893 
z"/>
</svg>